G04 Layer_Color=255*
%FSLAX25Y25*%
%MOIN*%
G70*
G01*
G75*
%ADD14C,0.05905*%
%ADD15R,0.05905X0.05905*%
%ADD19R,0.03543X0.02756*%
%ADD20R,0.02362X0.01968*%
D14*
X114810Y370890D02*
D03*
X124810D02*
D03*
X114810Y360890D02*
D03*
X124810D02*
D03*
X114810Y350890D02*
D03*
X124810D02*
D03*
X114810Y340890D02*
D03*
X124810D02*
D03*
X114810Y330890D02*
D03*
X124810D02*
D03*
X114810Y320890D02*
D03*
X124810D02*
D03*
X114810Y310890D02*
D03*
X124810D02*
D03*
X114810Y300890D02*
D03*
X124810D02*
D03*
X114810Y290890D02*
D03*
X124810D02*
D03*
X114810Y280890D02*
D03*
X124810D02*
D03*
X114810Y270890D02*
D03*
X124810D02*
D03*
X114810Y260890D02*
D03*
X124810D02*
D03*
X114810Y250890D02*
D03*
X124810D02*
D03*
X114810Y240890D02*
D03*
X124810D02*
D03*
X114810Y230890D02*
D03*
X124810D02*
D03*
X114810Y220890D02*
D03*
X124810D02*
D03*
X114810Y210890D02*
D03*
X124810D02*
D03*
X114810Y200890D02*
D03*
X124810D02*
D03*
X114810Y190890D02*
D03*
X124810D02*
D03*
X114810Y180890D02*
D03*
D15*
X124810D02*
D03*
D19*
X2098500Y198805D02*
D03*
Y192900D02*
D03*
D20*
X2094568Y198500D02*
D03*
X2090631D02*
D03*
X2094568Y194900D02*
D03*
X2090631D02*
D03*
X2094568Y203600D02*
D03*
X2090631D02*
D03*
X2090631Y201100D02*
D03*
X2094568D02*
D03*
X2090631Y192400D02*
D03*
X2094568D02*
D03*
M02*
