G04 Layer_Color=16711935*
%FSLAX25Y25*%
%MOIN*%
G70*
G01*
G75*
%ADD28C,0.06706*%
%ADD29R,0.06706X0.06706*%
%ADD30C,0.01357*%
%ADD31C,0.02800*%
%ADD32R,0.04343X0.03556*%
%ADD33R,0.03162X0.02768*%
D28*
X114810Y370890D02*
D03*
X124810D02*
D03*
X114810Y360890D02*
D03*
X124810D02*
D03*
X114810Y350890D02*
D03*
X124810D02*
D03*
X114810Y340890D02*
D03*
X124810D02*
D03*
X114810Y330890D02*
D03*
X124810D02*
D03*
X114810Y320890D02*
D03*
X124810D02*
D03*
X114810Y310890D02*
D03*
X124810D02*
D03*
X114810Y300890D02*
D03*
X124810D02*
D03*
X114810Y290890D02*
D03*
X124810D02*
D03*
X114810Y280890D02*
D03*
X124810D02*
D03*
X114810Y270890D02*
D03*
X124810D02*
D03*
X114810Y260890D02*
D03*
X124810D02*
D03*
X114810Y250890D02*
D03*
X124810D02*
D03*
X114810Y240890D02*
D03*
X124810D02*
D03*
X114810Y230890D02*
D03*
X124810D02*
D03*
X114810Y220890D02*
D03*
X124810D02*
D03*
X114810Y210890D02*
D03*
X124810D02*
D03*
X114810Y200890D02*
D03*
X124810D02*
D03*
X114810Y190890D02*
D03*
X124810D02*
D03*
X114810Y180890D02*
D03*
D29*
X124810D02*
D03*
D30*
X2089400Y192000D02*
D03*
X2096806Y203100D02*
D03*
X2098774Y199005D02*
D03*
X2094837Y194911D02*
D03*
X2090900Y201053D02*
D03*
X2098774Y194911D02*
D03*
X2090700Y198900D02*
D03*
X2090900Y204000D02*
D03*
D31*
X145200Y250300D02*
D03*
X139000Y280600D02*
D03*
X144200Y272000D02*
D03*
D32*
X2098500Y198805D02*
D03*
Y192900D02*
D03*
D33*
X2094568Y198500D02*
D03*
X2090631D02*
D03*
X2094568Y194900D02*
D03*
X2090631D02*
D03*
X2094568Y203600D02*
D03*
X2090631D02*
D03*
X2090631Y201100D02*
D03*
X2094568D02*
D03*
X2090631Y192400D02*
D03*
X2094568D02*
D03*
M02*
