G04 Layer_Color=65535*
%FSLAX25Y25*%
%MOIN*%
G70*
G01*
G75*
%ADD11C,0.00400*%
%ADD21C,0.00800*%
%ADD26C,0.00787*%
D11*
X2088931Y203100D02*
X2090900Y205068D01*
X2100743D01*
Y191289D02*
Y205068D01*
X2088931Y191289D02*
X2100743D01*
X2088931D02*
Y203100D01*
D21*
X126810Y170890D02*
Y172223D01*
Y171556D01*
X122811D01*
X123478Y170890D01*
X116810Y173556D02*
Y170890D01*
X114144Y173556D01*
X113478D01*
X112811Y172889D01*
Y171556D01*
X113478Y170890D01*
X116810Y380889D02*
X112811D01*
X114811Y378890D01*
Y381556D01*
X113478Y382889D02*
X112811Y383555D01*
Y384888D01*
X113478Y385555D01*
X116144D01*
X116810Y384888D01*
Y383555D01*
X116144Y382889D01*
X113478D01*
X123478Y378890D02*
X122811Y379556D01*
Y380889D01*
X123478Y381556D01*
X124144D01*
X124811Y380889D01*
Y380223D01*
Y380889D01*
X125477Y381556D01*
X126144D01*
X126810Y380889D01*
Y379556D01*
X126144Y378890D01*
Y382889D02*
X126810Y383555D01*
Y384888D01*
X126144Y385555D01*
X123478D01*
X122811Y384888D01*
Y383555D01*
X123478Y382889D01*
X124144D01*
X124811Y383555D01*
Y385555D01*
D26*
X129810Y175890D02*
Y375890D01*
X109810Y175890D02*
Y375890D01*
Y175890D02*
X129810D01*
X109810Y375890D02*
X129810D01*
M02*
