G04 Layer_Color=8388736*
%FSLAX25Y25*%
%MOIN*%
G70*
G01*
G75*
%ADD27C,0.01394*%
%ADD28C,0.06706*%
%ADD29R,0.06706X0.06706*%
%ADD30C,0.01357*%
%ADD31C,0.02800*%
D27*
X2098774Y192864D02*
D03*
X2096806D02*
D03*
X2094837D02*
D03*
X2092868D02*
D03*
X2090900D02*
D03*
X2098774Y194911D02*
D03*
X2096806D02*
D03*
X2094837D02*
D03*
X2092868D02*
D03*
X2090900D02*
D03*
X2098774Y196958D02*
D03*
X2096806D02*
D03*
X2094837D02*
D03*
X2092868D02*
D03*
X2090900D02*
D03*
X2098774Y199005D02*
D03*
X2096806D02*
D03*
X2094837D02*
D03*
X2092868D02*
D03*
X2090900D02*
D03*
X2098774Y201053D02*
D03*
X2096806D02*
D03*
X2094837D02*
D03*
X2092868D02*
D03*
X2090900D02*
D03*
X2092868Y203100D02*
D03*
X2094837D02*
D03*
X2096806D02*
D03*
X2098774D02*
D03*
D28*
X114810Y370890D02*
D03*
X124810D02*
D03*
X114810Y360890D02*
D03*
X124810D02*
D03*
X114810Y350890D02*
D03*
X124810D02*
D03*
X114810Y340890D02*
D03*
X124810D02*
D03*
X114810Y330890D02*
D03*
X124810D02*
D03*
X114810Y320890D02*
D03*
X124810D02*
D03*
X114810Y310890D02*
D03*
X124810D02*
D03*
X114810Y300890D02*
D03*
X124810D02*
D03*
X114810Y290890D02*
D03*
X124810D02*
D03*
X114810Y280890D02*
D03*
X124810D02*
D03*
X114810Y270890D02*
D03*
X124810D02*
D03*
X114810Y260890D02*
D03*
X124810D02*
D03*
X114810Y250890D02*
D03*
X124810D02*
D03*
X114810Y240890D02*
D03*
X124810D02*
D03*
X114810Y230890D02*
D03*
X124810D02*
D03*
X114810Y220890D02*
D03*
X124810D02*
D03*
X114810Y210890D02*
D03*
X124810D02*
D03*
X114810Y200890D02*
D03*
X124810D02*
D03*
X114810Y190890D02*
D03*
X124810D02*
D03*
X114810Y180890D02*
D03*
D29*
X124810D02*
D03*
D30*
X2089400Y192000D02*
D03*
X2092868Y196958D02*
D03*
X2094837Y203100D02*
D03*
X2096806D02*
D03*
X2098774Y201053D02*
D03*
Y199005D02*
D03*
X2094837Y194911D02*
D03*
X2096806Y201053D02*
D03*
X2090900D02*
D03*
X2096806Y194911D02*
D03*
X2090900D02*
D03*
X2094837Y199005D02*
D03*
X2098774Y194911D02*
D03*
X2090900Y204000D02*
D03*
X2092868Y199005D02*
D03*
Y201053D02*
D03*
D31*
X145200Y250300D02*
D03*
X139000Y280600D02*
D03*
X144200Y272000D02*
D03*
M02*
