G04 Layer_Physical_Order=2*
G04 Layer_Color=36540*
%FSLAX25Y25*%
%MOIN*%
G70*
G01*
G75*
%ADD11C,0.00400*%
%ADD14C,0.05905*%
%ADD16C,0.01200*%
D11*
X2089136Y196400D02*
X2089947Y197211D01*
X2092616D01*
X2092868Y196958D01*
X2089509Y195500D02*
X2090320Y196311D01*
X2091480D01*
X2092868Y194922D01*
Y194911D02*
Y194922D01*
X2094837Y193537D02*
Y194911D01*
X2094400Y193100D02*
X2094837Y193537D01*
X2091600Y193100D02*
X2094400D01*
X2090900Y193800D02*
X2091600Y193100D01*
X2090900Y193800D02*
Y194911D01*
X2096806Y193605D02*
Y194911D01*
X2096400Y193200D02*
X2096806Y193605D01*
X2094837Y201053D02*
X2096806D01*
X2098774Y200985D02*
Y201053D01*
X2096806Y199017D02*
X2098774Y200985D01*
X2096806Y199005D02*
Y199017D01*
X2094837Y196958D02*
Y199005D01*
X2090900Y204000D02*
X2091800Y203100D01*
X2094837D01*
X137400Y198300D02*
X2092163D01*
X2092868Y199005D01*
X143900Y199200D02*
X2091027D01*
X2092868Y201041D01*
Y201053D01*
X138600Y195500D02*
X2089509D01*
X133990Y190890D02*
X138600Y195500D01*
X124810Y190890D02*
X133990D01*
X120320Y196400D02*
X2089136D01*
X114810Y190890D02*
X120320Y196400D01*
X124810Y210890D02*
X137400Y198300D01*
X127400Y215700D02*
X143900Y199200D01*
X119620Y215700D02*
X127400D01*
X114810Y210890D02*
X119620Y215700D01*
D14*
X114810Y210890D02*
D03*
X124810D02*
D03*
X114810Y190890D02*
D03*
X124810D02*
D03*
D16*
X2092868Y196958D02*
D03*
Y194911D02*
D03*
X2094837Y203100D02*
D03*
X2098774Y201053D02*
D03*
X2094837Y194911D02*
D03*
X2096806Y201053D02*
D03*
Y194911D02*
D03*
X2090900D02*
D03*
X2094837Y199005D02*
D03*
X2096300Y193100D02*
D03*
X2096806Y199005D02*
D03*
X2094837Y201053D02*
D03*
X2094837Y196958D02*
D03*
X2090900Y204000D02*
D03*
X2092868Y199005D02*
D03*
Y201053D02*
D03*
M02*
